<?xml version="1.0" encoding="UTF-8" standalone="yes"?>
<svg xmlns="http://www.w3.org/2000/svg" xmlns:xlink="http://www.w3.org/1999/xlink" width="40pt" height="40pt" viewBox="0 0 40 40" version="1.1" fill="#000000">
  <g id="surface158666">
    <path style="fill:none;stroke-width:2;stroke-linecap:round;stroke-linejoin:round;stroke:#000000;stroke-opacity:1;stroke-miterlimit:10;" d="M 74.003906 27.998047 C 73.203125 27.998047 72.431641 28.115234 71.689453 28.310547 C 71.884766 27.568359 72.001953 26.796875 72.001953 25.996094 C 72.001953 21.025391 67.96875 17.001953 62.998047 17.001953 C 58.027344 17.001953 54.003906 21.025391 54.003906 25.996094 C 54.003906 28.486328 55.009766 30.732422 56.640625 32.363281 L 32.363281 56.640625 C 30.732422 55.009766 28.486328 54.003906 25.996094 54.003906 C 21.025391 54.003906 17.001953 58.027344 17.001953 62.998047 C 17.001953 67.96875 21.025391 72.001953 25.996094 72.001953 C 26.796875 72.001953 27.568359 71.884766 28.310547 71.689453 C 28.115234 72.431641 27.998047 73.203125 27.998047 74.003906 C 27.998047 78.974609 32.03125 82.998047 37.001953 82.998047 C 41.972656 82.998047 45.996094 78.974609 45.996094 74.003906 C 45.996094 71.259766 44.775391 68.808594 42.841797 67.158203 L 67.158203 42.841797 C 68.808594 44.775391 71.259766 45.996094 74.003906 45.996094 C 78.974609 45.996094 82.998047 41.972656 82.998047 37.001953 C 82.998047 32.03125 78.974609 27.998047 74.003906 27.998047 Z M 74.003906 27.998047 " transform="matrix(0.4,0,0,0.4,0,0)"/>
    <path style="fill:none;stroke-width:1;stroke-linecap:round;stroke-linejoin:miter;stroke:#000000;stroke-opacity:1;stroke-miterlimit:10;" d="M 40.566406 69.824219 C 41.787109 70.869141 42.5 72.392578 42.5 74.003906 C 42.5 77.03125 40.029297 79.501953 37.001953 79.501953 M 41.064453 64.003906 L 40.371094 64.6875 M 69.824219 40.566406 C 69.189453 39.824219 68.271484 39.384766 67.304688 39.335938 C 66.328125 39.296875 65.380859 39.667969 64.6875 40.371094 L 42.5 62.558594 M 79.501953 37.001953 C 79.501953 40.029297 77.03125 42.5 74.003906 42.5 C 73.310547 42.5 72.626953 42.363281 72.001953 42.119141 M 58.398438 22.998047 C 59.375 21.494141 61.074219 20.498047 62.998047 20.498047 C 66.025391 20.498047 68.496094 22.96875 68.496094 25.996094 C 68.496094 26.464844 68.427734 26.933594 68.310547 27.412109 M 57.587891 27.001953 C 57.529297 26.669922 57.5 26.337891 57.5 25.996094 C 57.5 25.654297 57.529297 25.322266 57.587891 25 M 59.111328 29.892578 C 58.837891 29.619141 58.59375 29.316406 58.388672 29.003906 " transform="matrix(0.4,0,0,0.4,0,0)"/>
  </g>
</svg>