<?xml version="1.0" encoding="UTF-8" standalone="yes"?>
<svg xmlns="http://www.w3.org/2000/svg" xmlns:xlink="http://www.w3.org/1999/xlink" width="40pt" height="40pt" viewBox="0 0 40 40" version="1.1" fill="#000000">
  <g id="surface158560">
    <path style="fill:none;stroke-width:2;stroke-linecap:round;stroke-linejoin:round;stroke:#000000;stroke-opacity:1;stroke-miterlimit:10;" d="M 64 32 C 64 28.992188 61.195312 26.367188 56.6875 24.414062 C 56.085938 21.109375 53.078125 18.703125 49.617188 18.703125 C 48.71875 18.703125 47.8125 18.851562 46.914062 19.15625 C 45.710938 17.351562 43.609375 16 41.054688 16 C 38.195312 16 35.789062 17.65625 34.742188 20.210938 C 33.539062 19.304688 32.03125 18.703125 30.382812 18.703125 C 26.921875 18.703125 23.914062 21.109375 23.3125 24.414062 C 18.804688 26.367188 16 28.84375 16 32 " transform="matrix(0.5,0,0,0.5,0,0)"/>
    <path style="fill:none;stroke-width:2;stroke-linecap:round;stroke-linejoin:round;stroke:#000000;stroke-opacity:1;stroke-dasharray:0,4;stroke-miterlimit:10;" d="M 26.351562 28.515625 C 26.351562 28.515625 31.46875 37.046875 41.703125 29.085938 M 47.515625 32.53125 C 51.375 32.53125 53.078125 27.234375 53.078125 24.53125 " transform="matrix(0.5,0,0,0.5,0,0)"/>
    <path style="fill:none;stroke-width:2;stroke-linecap:round;stroke-linejoin:round;stroke:#000000;stroke-opacity:1;stroke-miterlimit:10;" d="M 10 31 L 4 49 C 4 58.46875 19.40625 65 40 65 C 60.59375 65 76 58.46875 76 49 L 70 31 " transform="matrix(0.5,0,0,0.5,0,0)"/>
    <path style="fill:none;stroke-width:2;stroke-linecap:round;stroke-linejoin:round;stroke:#000000;stroke-opacity:1;stroke-miterlimit:10;" d="M 41 40 C 24.46875 40 9.9375 35.992188 9.9375 31.03125 C 9.9375 27.875 15.351562 25.015625 23.617188 23.515625 " transform="matrix(0.5,0,0,0.5,0,0)"/>
    <path style="fill:none;stroke-width:2;stroke-linecap:round;stroke-linejoin:round;stroke:#000000;stroke-opacity:1;stroke-dasharray:0,4;stroke-miterlimit:10;" d="M 70.0625 31.03125 C 70.0625 35.992188 56.53125 40.046875 40 40.046875 " transform="matrix(0.5,0,0,0.5,0,0)"/>
    <path style="fill:none;stroke-width:2;stroke-linecap:round;stroke-linejoin:round;stroke:#000000;stroke-opacity:1;stroke-miterlimit:10;" d="M 56.382812 23.515625 C 64.648438 25.171875 70.0625 27.875 70.0625 31.03125 " transform="matrix(0.5,0,0,0.5,0,0)"/>
    <path style=" stroke:none;fill-rule:nonzero;fill:#000000;fill-opacity:1;" d="M 15 23.007812 C 14.371094 23.007812 13.863281 23.519531 13.863281 24.148438 C 13.863281 24.773438 14.371094 25.285156 15 25.285156 C 15.628906 25.285156 16.136719 24.773438 16.136719 24.148438 C 16.136719 23.519531 15.628906 23.007812 15 23.007812 Z M 15 23.007812 "/>
    <path style=" stroke:none;fill-rule:nonzero;fill:#000000;fill-opacity:1;" d="M 15 24.714844 C 14.371094 24.714844 13.863281 25.226562 13.863281 25.851562 C 13.863281 26.480469 14.371094 26.992188 15 26.992188 C 15.628906 26.992188 16.136719 26.480469 16.136719 25.851562 C 16.136719 25.226562 15.628906 24.714844 15 24.714844 Z M 24 23.007812 C 23.371094 23.007812 22.863281 23.519531 22.863281 24.148438 C 22.863281 24.773438 23.371094 25.285156 24 25.285156 C 24.628906 25.285156 25.136719 24.773438 25.136719 24.148438 C 25.136719 23.519531 24.628906 23.007812 24 23.007812 Z M 24 23.007812 "/>
    <path style=" stroke:none;fill-rule:nonzero;fill:#000000;fill-opacity:1;" d="M 24 24.714844 C 23.371094 24.714844 22.863281 25.226562 22.863281 25.851562 C 22.863281 26.480469 23.371094 26.992188 24 26.992188 C 24.628906 26.992188 25.136719 26.480469 25.136719 25.851562 C 25.136719 25.226562 24.628906 24.714844 24 24.714844 Z M 24 24.714844 "/>
    <path style="fill:none;stroke-width:2;stroke-linecap:butt;stroke-linejoin:miter;stroke:#000000;stroke-opacity:1;stroke-miterlimit:10;" d="M 29.757812 50 L 47.960938 50 " transform="matrix(0.5,0,0,0.5,0,0)"/>
  </g>
</svg>