<?xml version="1.0" encoding="UTF-8" standalone="yes"?>
<svg xmlns="http://www.w3.org/2000/svg" xmlns:xlink="http://www.w3.org/1999/xlink" width="40pt" height="40pt" viewBox="0 0 40 40" version="1.1" fill="#000000">
  <g id="surface262397">
    <path style=" stroke:none;fill-rule:nonzero;fill:#000000;fill-opacity:1;" d="M 35.457031 22.144531 C 35.832031 22.453125 36.339844 22.515625 36.785156 22.308594 C 37.226562 22.097656 37.5 21.667969 37.5 21.179688 L 37.5 19.339844 C 37.5 18.777344 37.25 18.25 36.816406 17.894531 L 20.566406 4.546875 C 19.875 3.980469 18.875 3.980469 18.183594 4.546875 L 1.933594 17.890625 C 1.5 18.25 1.25 18.777344 1.25 19.339844 L 1.25 21.175781 C 1.25 21.664062 1.523438 22.097656 1.964844 22.308594 C 2.140625 22.390625 2.320312 22.429688 2.503906 22.429688 C 2.785156 22.429688 3.0625 22.332031 3.292969 22.144531 L 3.75 21.769531 L 3.75 35 L 1.875 35 C 1.53125 35 1.25 35.28125 1.25 35.625 C 1.25 35.96875 1.53125 36.25 1.875 36.25 L 36.875 36.25 C 37.21875 36.25 37.5 35.96875 37.5 35.625 C 37.5 35.28125 37.21875 35 36.875 35 L 35 35 L 35 21.769531 Z M 12.5 35 L 5 35 L 5 30 L 12.5 30 Z M 25 28.75 L 25 34.96875 L 13.75 34.96875 L 13.75 26.875 C 13.75 23.773438 16.273438 21.25 19.375 21.25 C 22.476562 21.25 25 23.773438 25 26.875 Z M 33.75 35 L 26.25 35 L 26.25 30 L 33.75 30 Z M 33.75 28.75 L 26.25 28.75 L 26.25 26.875 C 26.25 23.082031 23.167969 20 19.375 20 C 15.582031 20 12.5 23.082031 12.5 26.875 L 12.5 28.75 L 5 28.75 L 5 20.742188 L 19.375 8.933594 L 33.75 20.742188 Z M 20.167969 7.96875 C 19.710938 7.59375 19.042969 7.589844 18.582031 7.96875 L 2.5 21.179688 L 2.5 19.339844 C 2.5 19.152344 2.582031 18.976562 2.726562 18.859375 L 18.976562 5.511719 C 19.09375 5.417969 19.234375 5.367188 19.375 5.367188 C 19.515625 5.367188 19.65625 5.417969 19.773438 5.511719 L 36.023438 18.859375 C 36.167969 18.976562 36.25 19.152344 36.25 19.339844 L 36.25 21.175781 Z M 20.167969 7.96875 "/>
    <path style=" stroke:none;fill-rule:nonzero;fill:#000000;fill-opacity:1;" d="M 10 33.75 C 10.34375 33.75 10.625 33.46875 10.625 33.125 L 10.625 31.875 C 10.625 31.53125 10.34375 31.25 10 31.25 C 9.65625 31.25 9.375 31.53125 9.375 31.875 L 9.375 33.125 C 9.375 33.46875 9.65625 33.75 10 33.75 Z M 6.875 33.75 C 7.21875 33.75 7.5 33.46875 7.5 33.125 L 7.5 31.875 C 7.5 31.53125 7.21875 31.25 6.875 31.25 C 6.53125 31.25 6.25 31.53125 6.25 31.875 L 6.25 33.125 C 6.25 33.46875 6.53125 33.75 6.875 33.75 Z M 28.75 33.75 C 29.09375 33.75 29.375 33.46875 29.375 33.125 L 29.375 31.875 C 29.375 31.53125 29.09375 31.25 28.75 31.25 C 28.40625 31.25 28.125 31.53125 28.125 31.875 L 28.125 33.125 C 28.125 33.46875 28.40625 33.75 28.75 33.75 Z M 31.875 33.75 C 32.21875 33.75 32.5 33.46875 32.5 33.125 L 32.5 31.875 C 32.5 31.53125 32.21875 31.25 31.875 31.25 C 31.53125 31.25 31.25 31.53125 31.25 31.875 L 31.25 33.125 C 31.25 33.46875 31.53125 33.75 31.875 33.75 Z M 16.25 16.875 C 16.25 17.21875 16.53125 17.5 16.875 17.5 L 21.875 17.5 C 22.21875 17.5 22.5 17.21875 22.5 16.875 C 22.5 16.53125 22.21875 16.25 21.875 16.25 L 16.875 16.25 C 16.53125 16.25 16.25 16.53125 16.25 16.875 Z M 16.25 16.875 "/>
  </g>
</svg>