<svg version="1.1" id="Camada_1" xmlns="http://www.w3.org/2000/svg" xmlns:xlink="http://www.w3.org/1999/xlink" x="0px" y="0px"
	 viewBox="0 0 231.6 128.4" style="enable-background:new 0 0 231.6 128.4;" xml:space="preserve">
<style type="text/css">
	.st0{fill:none;stroke:#000000;stroke-width:7;stroke-linecap:round;stroke-miterlimit:10;}
</style>
<g>
	<path class="st0" d="M11.8,111.5c26.5,0,26.5-24.9,53.1-24.9c26.5,0,26.5,24.9,53.1,24.9c26.5,0,26.5-24.9,53.1-24.9
		s26.5,24.9,53.1,24.9"/>
	<path class="st0" d="M11.8,111.5c26.5,0,26.5-24.9,53.1-24.9c26.5,0,26.5,24.9,53.1,24.9c26.5,0,26.5-24.9,53.1-24.9
		s26.5,24.9,53.1,24.9"/>
</g>
<g>
	<path class="st0" d="M11.8,75.6c26.5,0,26.5-24.9,53.1-24.9c26.5,0,26.5,24.9,53.1,24.9c26.5,0,26.5-24.9,53.1-24.9
		s26.5,24.9,53.1,24.9"/>
	<path class="st0" d="M11.8,75.6c26.5,0,26.5-24.9,53.1-24.9c26.5,0,26.5,24.9,53.1,24.9c26.5,0,26.5-24.9,53.1-24.9
		s26.5,24.9,53.1,24.9"/>
</g>
<g>
	<path class="st0" d="M11.8,39.7c26.5,0,26.5-24.9,53.1-24.9c26.5,0,26.5,24.9,53.1,24.9c26.5,0,26.5-24.9,53.1-24.9
		s26.5,24.9,53.1,24.9"/>
	<path class="st0" d="M11.8,39.7c26.5,0,26.5-24.9,53.1-24.9c26.5,0,26.5,24.9,53.1,24.9c26.5,0,26.5-24.9,53.1-24.9
		s26.5,24.9,53.1,24.9"/>
</g>
</svg>
