<?xml version="1.0" encoding="utf-8"?>
<!-- Generator: Adobe Illustrator 23.0.3, SVG Export Plug-In . SVG Version: 6.00 Build 0)  -->
<svg version="1.1" id="Camada_1" xmlns="http://www.w3.org/2000/svg" xmlns:xlink="http://www.w3.org/1999/xlink" x="0px" y="0px"
	 viewBox="0 0 273.03 106.13" style="enable-background:new 0 0 273.03 106.13;" xml:space="preserve">
<style type="text/css">
	.st0{fill:#EBC22E;}
	.st1{fill:#263F74;}
</style>
<g>
	<path class="st0" d="M66.41,5.99c-19.9,0-38.38,9.9-49.43,26.49c-6.49,9.74-9.92,21.1-9.92,32.86c0,12.18,3.66,23.88,10.59,33.84
		c1.36,0.32,2.85,0.48,4.44,0.48c0.11,0,0.22,0,0.33,0c0.94-0.01,1.87-0.04,2.82-0.07c-1.21-6.83-1.66-14.55,2.82-21.17l0.14-0.2
		l0.17-0.18c2.87-3,7.04-4.46,10.73-5.75c2.43-1.03,3.68-3.48,3.82-7.48l0.02-0.29c0.37-2.81,1.77-4.93,4.03-6.16
		c0.54-0.87,1.26-1.67,2.19-2.45l3.56-2.96l1.06,5.26l2.75,0.52l0.65,1.08c0.58,0.97,1,1.25,1.5,1.41l1.08,0.34l0.55,1.01
		c1.08,1.98,0.85,4.22-0.61,5.99l-0.09,0.11c-0.92,1-2.08,1.89-3.53,2.71l-0.01,0.13c-0.37,7.05-0.64,12.16-5.12,18.68v8.68h14.34
		c1.22-1.35,2.62-2.47,4.26-3.43c0.15-5.09,0.53-10.5,1.18-16.97c-3.55-4.83-5.58-10.27-6.03-16.19l-0.08-1.09l0.65-0.87
		c1.62-2.15,2.59-4.23,3.23-6.95c0.51-7.73,0.08-9.5-5.49-10.51l-0.09-0.02c-2.67-0.56-5.69-1.19-7.07-3.79
		c-0.79-1.49-0.82-3.25-0.09-5.22l0.74-1.98l2.06,0.14c1.03,0.07,2.04,0.11,3.01,0.11c1.37,0,2.71-0.08,3.99-0.22
		c1.33-0.86,2.71-1.52,4.11-1.96c0.89-0.28,1.79-0.48,2.68-0.59c0.14-0.02,0.28-0.03,0.48-0.03c0.04,0,0.09,0,0.13,0
		c0.82-1.6,1.21-3.28,1.2-5.23l-0.01-6.72L78.89,22c0.82,0.8,1.45,1.83,1.95,3.14c0.97,2.58,1.5,5.24,1.93,7.53
		c0.15,0.83,0.43,1.71,0.73,2.63c0.46,1.43,0.97,3.05,1.1,4.83l0.02,0.25l-0.02,0.25c-0.36,3.64,0.15,6.65,1.63,9.45l1.94,2.69
		c0.56,0.77,1.33,1.51,2.15,2.28c0.62,0.59,1.32,1.26,1.97,1.99c2.05,2.33,3.92,4.93,5.54,7.74c0.77,1.32,1.5,2.72,2.17,4.16
		c0.32,0.68,0.64,1.4,0.96,2.14c0.13,0.3,0.23,0.59,0.32,0.86l0.03,0.09c0.07,0.19,0.2,0.56,0.26,0.66
		c4.73,7.66,6.46,17.26,4.92,27.13l4.22,0c1.55,0,3-0.13,4.29-0.4c7.04-10.02,10.76-21.79,10.76-34.09c0-8.71-1.84-17.1-5.48-24.93
		C110.59,19.5,89.44,5.99,66.41,5.99z"/>
	<path class="st1" d="M99.72,14.11c-9.91-6.46-21.43-9.87-33.31-9.87c-20.49,0-39.51,10.19-50.88,27.27
		C8.84,41.54,5.31,53.24,5.31,65.34c0,12.65,3.84,24.8,11.09,35.11l0.19,0.26l0.31,0.08c1.58,0.4,3.32,0.61,5.19,0.61
		c0.12,0,0.23,0,0.36,0c1.28-0.02,2.55-0.05,3.86-0.11l1.01-0.04l-0.19-0.99c-1.27-6.71-1.98-14.44,2.37-20.86l0.05-0.07l0.06-0.07
		c2.59-2.71,6.57-4.1,10.08-5.33l0.05-0.02c3.13-1.32,4.74-4.28,4.91-9.04l0.01-0.11c0.31-2.34,1.43-4.01,3.32-4.95l0.24-0.12
		l0.13-0.23c0.44-0.77,1.07-1.49,1.93-2.2l1.32-1.09l0.71,3.55l3.14,0.59l0.25,0.41c0.74,1.23,1.46,1.86,2.48,2.17l0.4,0.13
		l0.21,0.39c0.75,1.37,0.6,2.81-0.43,4.05l-0.04,0.04c-0.88,0.95-2.02,1.8-3.5,2.58l-0.44,0.23l-0.06,1.11
		c-0.36,6.84-0.62,11.78-4.96,17.99l-0.16,0.22v10.97h16.87l0.26-0.3c1.25-1.44,2.71-2.61,4.49-3.59l0.44-0.24l0.01-0.5
		c0.14-5.27,0.53-10.89,1.22-17.67l0.03-0.34l-0.2-0.27c-3.47-4.63-5.46-9.86-5.89-15.55l-0.03-0.44l0.26-0.35
		c1.79-2.38,2.85-4.67,3.55-7.67l0.02-0.07l0-0.07c0.49-7.45,0.4-11.09-6.92-12.42l-0.03-0.01c-2.51-0.53-4.89-1.02-5.89-2.9
		c-0.55-1.03-0.55-2.31,0.01-3.79l0.28-0.75l0.76,0.05c1.07,0.08,2.12,0.11,3.13,0.11c1.51,0,2.99-0.09,4.41-0.26l0.2-0.03
		l0.17-0.11c1.24-0.83,2.54-1.46,3.84-1.87c0.78-0.25,1.58-0.42,2.38-0.52c0.06-0.01,0.13-0.01,0.25-0.01c0.22,0,0.42,0,0.62,0.01
		l0.52,0.01l0.26-0.45c1.13-1.98,1.68-4.13,1.68-6.54l0-2.55l1.76,1.73c0.63,0.62,1.13,1.44,1.54,2.51
		c0.92,2.45,1.43,5.02,1.84,7.23c0.17,0.94,0.47,1.87,0.78,2.85c0.45,1.4,0.91,2.85,1.02,4.42l0.01,0.1l-0.01,0.1
		c-0.4,4.02,0.19,7.35,1.85,10.49l2.04,2.84c0.66,0.91,1.49,1.69,2.37,2.53c0.62,0.59,1.27,1.2,1.86,1.88
		c1.98,2.24,3.77,4.75,5.34,7.46c0.74,1.28,1.45,2.64,2.11,4.03c0.31,0.66,0.63,1.36,0.93,2.08c0.1,0.25,0.19,0.5,0.28,0.75
		l0.03,0.1c0.16,0.45,0.27,0.76,0.41,0.99c4.66,7.57,6.27,17.13,4.51,26.93l-0.18,1.03l6.3,0c1.81,0,3.49-0.17,5-0.51l0.33-0.07
		l0.19-0.27c7.38-10.37,11.28-22.6,11.28-35.37c0-8.96-1.9-17.6-5.64-25.67C117.03,29.24,109.37,20.41,99.72,14.11z M115,99.43
		c-1.3,0.26-2.74,0.4-4.29,0.4l-4.22,0c1.54-9.87-0.19-19.46-4.92-27.13c-0.06-0.1-0.19-0.46-0.26-0.66l-0.03-0.09
		c-0.1-0.28-0.2-0.56-0.32-0.86c-0.31-0.74-0.64-1.46-0.96-2.14c-0.68-1.44-1.41-2.83-2.17-4.16c-1.62-2.81-3.49-5.41-5.54-7.74
		c-0.65-0.73-1.35-1.4-1.97-1.99c-0.82-0.78-1.59-1.51-2.15-2.28l-1.94-2.69c-1.48-2.8-2-5.81-1.63-9.45l0.02-0.25l-0.02-0.25
		c-0.13-1.79-0.65-3.41-1.1-4.83c-0.29-0.93-0.57-1.8-0.73-2.63c-0.42-2.29-0.96-4.95-1.93-7.53c-0.49-1.32-1.13-2.34-1.95-3.14
		l-4.73-4.65l0.01,6.72c0,1.95-0.38,3.63-1.2,5.23c-0.04,0-0.09,0-0.13,0c-0.2,0-0.34,0.01-0.48,0.03
		c-0.89,0.11-1.79,0.31-2.68,0.59c-1.4,0.44-2.78,1.1-4.11,1.96c-1.29,0.15-2.63,0.22-3.99,0.22c-0.97,0-1.98-0.04-3.01-0.11
		l-2.06-0.14l-0.74,1.98c-0.73,1.97-0.7,3.72,0.09,5.22c1.38,2.6,4.4,3.23,7.07,3.79l0.09,0.02c5.56,1.02,5.99,2.78,5.49,10.51
		c-0.64,2.71-1.61,4.79-3.23,6.95l-0.65,0.87l0.08,1.09c0.45,5.91,2.48,11.36,6.03,16.19c-0.65,6.47-1.03,11.89-1.18,16.97
		c-1.64,0.96-3.04,2.08-4.26,3.43H50.95v-8.68c4.48-6.52,4.75-11.63,5.12-18.68l0.01-0.13c1.45-0.82,2.61-1.7,3.53-2.71l0.09-0.11
		c1.47-1.77,1.7-4.01,0.61-5.99l-0.55-1.01l-1.08-0.34c-0.5-0.15-0.92-0.44-1.5-1.41l-0.65-1.08l-2.75-0.52l-1.06-5.26l-3.56,2.96
		c-0.94,0.78-1.66,1.58-2.19,2.45c-2.27,1.22-3.66,3.35-4.03,6.16l-0.02,0.29c-0.14,4-1.39,6.45-3.82,7.48
		c-3.69,1.29-7.86,2.76-10.73,5.75l-0.17,0.18l-0.14,0.2c-4.48,6.62-4.03,14.34-2.82,21.17c-0.95,0.03-1.88,0.06-2.82,0.07
		c-0.11,0-0.22,0-0.33,0c-1.6,0-3.09-0.16-4.44-0.48C10.72,89.22,7.06,77.52,7.06,65.34c0-11.76,3.43-23.12,9.92-32.86
		C28.03,15.89,46.51,5.99,66.41,5.99c23.03,0,44.18,13.51,53.87,34.42c3.63,7.84,5.48,16.23,5.48,24.93
		C125.76,77.63,122.04,89.41,115,99.43z"/>
</g>
<g>
	<g>
		<g>
			<g>
				<path class="st0" d="M139.45,36.73c0-1.17,0.2-2.28,0.61-3.33c0.4-1.04,0.99-1.96,1.76-2.75c0.77-0.79,1.69-1.42,2.78-1.89
					c1.09-0.47,2.31-0.7,3.68-0.7c1.83,0,3.39,0.39,4.69,1.18c1.29,0.79,2.25,1.82,2.89,3.1l-4.19,1.28
					c-0.36-0.62-0.84-1.09-1.44-1.42c-0.6-0.33-1.26-0.5-1.98-0.5c-0.62,0-1.19,0.12-1.73,0.37c-0.53,0.25-1,0.59-1.39,1.02
					c-0.39,0.44-0.7,0.96-0.93,1.58c-0.22,0.62-0.34,1.3-0.34,2.05c0,0.75,0.12,1.43,0.35,2.05c0.23,0.62,0.55,1.15,0.94,1.6
					c0.39,0.45,0.86,0.79,1.39,1.04c0.53,0.25,1.1,0.37,1.69,0.37c0.77,0,1.48-0.19,2.13-0.58c0.65-0.38,1.1-0.85,1.36-1.41
					l4.19,1.28c-0.58,1.28-1.52,2.32-2.85,3.13c-1.32,0.81-2.91,1.22-4.76,1.22c-1.36,0-2.59-0.23-3.68-0.7
					c-1.09-0.47-2.01-1.1-2.78-1.9c-0.77-0.8-1.36-1.73-1.77-2.78C139.66,38.98,139.45,37.88,139.45,36.73z"/>
				<path class="st0" d="M163.12,45.42c-0.81,0-1.57-0.13-2.27-0.4c-0.7-0.27-1.31-0.64-1.82-1.12c-0.51-0.48-0.91-1.04-1.2-1.68
					c-0.29-0.64-0.43-1.34-0.43-2.11c0-0.79,0.18-1.52,0.53-2.19c0.35-0.67,0.84-1.24,1.47-1.71c0.63-0.47,1.38-0.84,2.25-1.1
					c0.87-0.27,1.83-0.4,2.88-0.4c0.75,0,1.48,0.06,2.19,0.19c0.71,0.13,1.35,0.31,1.9,0.54v-0.96c0-1.11-0.31-1.96-0.94-2.56
					c-0.63-0.6-1.56-0.9-2.8-0.9c-0.9,0-1.77,0.16-2.62,0.48c-0.85,0.32-1.73,0.79-2.62,1.41l-1.31-2.72
					c2.15-1.43,4.48-2.14,6.97-2.14c2.41,0,4.28,0.59,5.61,1.77c1.33,1.18,2,2.89,2,5.13v5.21c0,0.45,0.08,0.77,0.24,0.96
					c0.16,0.19,0.42,0.3,0.78,0.32v3.65c-0.73,0.15-1.35,0.22-1.89,0.22c-0.81,0-1.43-0.18-1.87-0.54
					c-0.44-0.36-0.71-0.84-0.82-1.44l-0.1-0.93c-0.75,0.98-1.65,1.73-2.72,2.24C165.47,45.17,164.33,45.42,163.12,45.42z
					 M164.33,42.29c0.72,0,1.41-0.13,2.06-0.38c0.65-0.26,1.16-0.6,1.52-1.02c0.47-0.36,0.7-0.77,0.7-1.22v-1.92
					c-0.51-0.19-1.07-0.35-1.66-0.46c-0.6-0.12-1.17-0.18-1.73-0.18c-1.11,0-2.01,0.25-2.72,0.75c-0.7,0.5-1.06,1.14-1.06,1.9
					c0,0.73,0.28,1.33,0.83,1.81C162.84,42.05,163.52,42.29,164.33,42.29z"/>
				<path class="st0" d="M183.23,45.42c-1.41,0-2.78-0.22-4.13-0.67c-1.34-0.45-2.49-1.09-3.45-1.92l1.6-2.69
					c1.02,0.73,2.02,1.27,2.99,1.65c0.97,0.37,1.93,0.56,2.89,0.56c0.85,0,1.52-0.16,2.01-0.48c0.49-0.32,0.74-0.78,0.74-1.38
					c0-0.6-0.29-1.03-0.86-1.31c-0.58-0.28-1.51-0.6-2.81-0.96c-1.09-0.3-2.01-0.59-2.78-0.86c-0.77-0.28-1.39-0.59-1.85-0.94
					c-0.47-0.35-0.81-0.76-1.02-1.22c-0.21-0.46-0.32-1.01-0.32-1.65c0-0.85,0.16-1.62,0.5-2.3c0.33-0.68,0.79-1.26,1.39-1.74
					c0.6-0.48,1.3-0.85,2.09-1.1c0.8-0.26,1.67-0.38,2.61-0.38c1.26,0,2.44,0.18,3.53,0.54c1.1,0.36,2.11,0.95,3.02,1.76l-1.73,2.59
					c-0.85-0.64-1.68-1.11-2.48-1.41c-0.8-0.3-1.59-0.45-2.38-0.45c-0.73,0-1.33,0.15-1.82,0.45c-0.49,0.3-0.74,0.78-0.74,1.44
					c0,0.3,0.06,0.54,0.18,0.74c0.12,0.19,0.3,0.36,0.56,0.51c0.26,0.15,0.59,0.29,1.01,0.43c0.42,0.14,0.93,0.28,1.55,0.43
					c1.15,0.3,2.14,0.6,2.96,0.9c0.82,0.3,1.49,0.64,2.01,1.02c0.52,0.38,0.91,0.83,1.15,1.33c0.24,0.5,0.37,1.1,0.37,1.81
					c0,1.64-0.61,2.94-1.82,3.89C186.97,44.95,185.32,45.42,183.23,45.42z"/>
				<path class="st0" d="M197.37,45.42c-0.81,0-1.57-0.13-2.27-0.4c-0.7-0.27-1.31-0.64-1.82-1.12c-0.51-0.48-0.91-1.04-1.2-1.68
					c-0.29-0.64-0.43-1.34-0.43-2.11c0-0.79,0.18-1.52,0.53-2.19c0.35-0.67,0.84-1.24,1.47-1.71c0.63-0.47,1.38-0.84,2.25-1.1
					c0.87-0.27,1.83-0.4,2.88-0.4c0.75,0,1.48,0.06,2.19,0.19c0.71,0.13,1.35,0.31,1.9,0.54v-0.96c0-1.11-0.31-1.96-0.94-2.56
					c-0.63-0.6-1.56-0.9-2.8-0.9c-0.9,0-1.77,0.16-2.62,0.48c-0.85,0.32-1.73,0.79-2.62,1.41l-1.31-2.72
					c2.15-1.43,4.48-2.14,6.97-2.14c2.41,0,4.28,0.59,5.61,1.77c1.33,1.18,2,2.89,2,5.13v5.21c0,0.45,0.08,0.77,0.24,0.96
					c0.16,0.19,0.42,0.3,0.78,0.32v3.65c-0.73,0.15-1.35,0.22-1.89,0.22c-0.81,0-1.43-0.18-1.87-0.54
					c-0.44-0.36-0.71-0.84-0.82-1.44l-0.1-0.93c-0.75,0.98-1.65,1.73-2.72,2.24C199.72,45.17,198.58,45.42,197.37,45.42z
					 M198.58,42.29c0.72,0,1.41-0.13,2.06-0.38c0.65-0.26,1.16-0.6,1.52-1.02c0.47-0.36,0.7-0.77,0.7-1.22v-1.92
					c-0.51-0.19-1.07-0.35-1.66-0.46c-0.6-0.12-1.17-0.18-1.73-0.18c-1.11,0-2.01,0.25-2.72,0.75c-0.7,0.5-1.06,1.14-1.06,1.9
					c0,0.73,0.28,1.33,0.83,1.81C197.09,42.05,197.77,42.29,198.58,42.29z"/>
				<path class="st0" d="M222.57,45.42c-1.15,0-2.22-0.22-3.2-0.67c-0.98-0.45-1.82-1.07-2.53-1.85c-0.7-0.79-1.25-1.71-1.65-2.77
					c-0.39-1.06-0.59-2.19-0.59-3.41c0-1.22,0.19-2.35,0.56-3.39c0.37-1.04,0.89-1.96,1.55-2.75c0.66-0.79,1.45-1.41,2.37-1.85
					c0.92-0.45,1.92-0.67,3.01-0.67c1.24,0,2.35,0.3,3.34,0.9c0.99,0.6,1.76,1.38,2.32,2.33v-9.53h4.29v18.42
					c0,0.45,0.07,0.77,0.22,0.96c0.15,0.19,0.4,0.3,0.77,0.32v3.65c-0.75,0.15-1.35,0.22-1.82,0.22c-0.77,0-1.4-0.19-1.89-0.58
					c-0.49-0.38-0.77-0.88-0.83-1.5l-0.1-1.06c-0.62,1.07-1.46,1.87-2.51,2.41C224.82,45.15,223.72,45.42,222.57,45.42z
					 M223.69,41.78c0.4,0,0.82-0.07,1.25-0.21c0.43-0.14,0.82-0.34,1.18-0.59c0.36-0.26,0.69-0.55,0.98-0.9
					c0.29-0.34,0.51-0.71,0.66-1.12v-4c-0.17-0.47-0.41-0.9-0.72-1.3c-0.31-0.39-0.66-0.74-1.06-1.02
					c-0.39-0.29-0.81-0.52-1.25-0.69c-0.44-0.17-0.87-0.26-1.3-0.26c-0.64,0-1.23,0.14-1.77,0.42c-0.54,0.28-1.01,0.66-1.39,1.14
					c-0.38,0.48-0.68,1.03-0.9,1.65c-0.21,0.62-0.32,1.26-0.32,1.92c0,0.7,0.12,1.35,0.35,1.95c0.23,0.6,0.55,1.12,0.96,1.57
					c0.4,0.45,0.89,0.8,1.46,1.06C222.38,41.65,223,41.78,223.69,41.78z"/>
				<path class="st0" d="M243.99,45.42c-1.36,0-2.59-0.23-3.68-0.7c-1.09-0.47-2.01-1.1-2.77-1.9c-0.76-0.8-1.34-1.72-1.74-2.77
					c-0.41-1.04-0.61-2.14-0.61-3.29c0-1.17,0.2-2.28,0.61-3.33c0.4-1.04,0.99-1.97,1.74-2.77c0.76-0.8,1.68-1.43,2.77-1.9
					c1.09-0.47,2.31-0.7,3.68-0.7c1.36,0,2.58,0.23,3.66,0.7c1.08,0.47,1.99,1.1,2.75,1.9c0.76,0.8,1.34,1.72,1.74,2.77
					c0.4,1.04,0.61,2.15,0.61,3.33c0,1.15-0.2,2.25-0.61,3.29c-0.41,1.04-0.98,1.97-1.73,2.77c-0.75,0.8-1.66,1.43-2.75,1.9
					C246.58,45.19,245.36,45.42,243.99,45.42z M239.61,36.76c0,0.75,0.11,1.42,0.34,2.03c0.22,0.61,0.53,1.14,0.93,1.58
					c0.39,0.45,0.86,0.79,1.39,1.04c0.53,0.25,1.11,0.37,1.73,0.37c0.62,0,1.19-0.12,1.73-0.37c0.53-0.24,1-0.59,1.39-1.04
					c0.39-0.45,0.7-0.98,0.93-1.6c0.22-0.62,0.34-1.3,0.34-2.05c0-0.72-0.11-1.4-0.34-2.01c-0.22-0.62-0.53-1.15-0.93-1.6
					c-0.39-0.45-0.86-0.79-1.39-1.04c-0.53-0.24-1.11-0.37-1.73-0.37c-0.62,0-1.19,0.13-1.73,0.38c-0.53,0.26-1,0.61-1.39,1.06
					c-0.39,0.45-0.7,0.98-0.93,1.6C239.72,35.36,239.61,36.03,239.61,36.76z"/>
				<path class="st0" d="M261.96,45.42c-1.41,0-2.78-0.22-4.13-0.67c-1.34-0.45-2.49-1.09-3.45-1.92l1.6-2.69
					c1.02,0.73,2.02,1.27,2.99,1.65c0.97,0.37,1.93,0.56,2.89,0.56c0.85,0,1.52-0.16,2.01-0.48c0.49-0.32,0.74-0.78,0.74-1.38
					c0-0.6-0.29-1.03-0.86-1.31c-0.58-0.28-1.51-0.6-2.81-0.96c-1.09-0.3-2.01-0.59-2.78-0.86c-0.77-0.28-1.39-0.59-1.85-0.94
					c-0.47-0.35-0.81-0.76-1.02-1.22c-0.21-0.46-0.32-1.01-0.32-1.65c0-0.85,0.16-1.62,0.5-2.3c0.33-0.68,0.79-1.26,1.39-1.74
					c0.6-0.48,1.3-0.85,2.09-1.1c0.8-0.26,1.67-0.38,2.61-0.38c1.26,0,2.44,0.18,3.53,0.54c1.1,0.36,2.11,0.95,3.02,1.76l-1.73,2.59
					c-0.85-0.64-1.68-1.11-2.48-1.41c-0.8-0.3-1.59-0.45-2.38-0.45c-0.73,0-1.33,0.15-1.82,0.45c-0.49,0.3-0.74,0.78-0.74,1.44
					c0,0.3,0.06,0.54,0.18,0.74c0.12,0.19,0.3,0.36,0.56,0.51c0.26,0.15,0.59,0.29,1.01,0.43c0.42,0.14,0.93,0.28,1.55,0.43
					c1.15,0.3,2.14,0.6,2.96,0.9c0.82,0.3,1.49,0.64,2.01,1.02c0.52,0.38,0.91,0.83,1.15,1.33c0.24,0.5,0.37,1.1,0.37,1.81
					c0,1.64-0.61,2.94-1.82,3.89C265.71,44.95,264.05,45.42,261.96,45.42z"/>
				<path class="st0" d="M147.06,72.16c-1.13,0-2.15-0.22-3.07-0.67c-0.92-0.45-1.71-1.06-2.38-1.84c-0.67-0.78-1.19-1.68-1.55-2.7
					c-0.36-1.02-0.54-2.11-0.54-3.26c0-1.22,0.19-2.35,0.58-3.39c0.38-1.04,0.92-1.96,1.6-2.75c0.68-0.79,1.5-1.41,2.46-1.85
					c0.96-0.45,2.01-0.67,3.17-0.67c1.3,0,2.44,0.29,3.42,0.88c0.98,0.59,1.79,1.37,2.43,2.35v-2.94h3.74v20.82
					c0,1.24-0.23,2.34-0.7,3.33c-0.47,0.98-1.11,1.81-1.93,2.49c-0.82,0.68-1.8,1.2-2.94,1.57c-1.14,0.36-2.38,0.54-3.73,0.54
					c-1.83,0-3.37-0.3-4.62-0.91c-1.25-0.61-2.32-1.47-3.21-2.57l2.33-2.27c0.64,0.79,1.44,1.41,2.41,1.85
					c0.97,0.45,2,0.67,3.09,0.67c0.66,0,1.3-0.09,1.9-0.27c0.61-0.18,1.15-0.46,1.61-0.85c0.47-0.38,0.84-0.87,1.1-1.47
					c0.27-0.6,0.4-1.3,0.4-2.11v-6.97c-0.55,0.96-1.33,1.7-2.33,2.22C149.29,71.9,148.22,72.16,147.06,72.16z M148.5,68.74
					c0.47,0,0.92-0.07,1.34-0.22c0.43-0.15,0.82-0.35,1.18-0.61c0.36-0.26,0.68-0.55,0.96-0.9c0.28-0.34,0.49-0.7,0.64-1.09v-4
					c-0.38-0.98-0.99-1.77-1.81-2.37c-0.82-0.6-1.68-0.9-2.57-0.9c-0.66,0-1.26,0.14-1.79,0.43c-0.53,0.29-0.99,0.67-1.38,1.15
					c-0.38,0.48-0.68,1.03-0.88,1.65c-0.2,0.62-0.3,1.26-0.3,1.92c0,0.68,0.12,1.32,0.35,1.92c0.23,0.6,0.56,1.12,0.98,1.57
					c0.42,0.45,0.9,0.8,1.46,1.06C147.23,68.61,147.84,68.74,148.5,68.74z"/>
				<path class="st0" d="M165.36,72.39c-0.81,0-1.57-0.13-2.27-0.4c-0.7-0.27-1.31-0.64-1.82-1.12c-0.51-0.48-0.91-1.04-1.2-1.68
					c-0.29-0.64-0.43-1.34-0.43-2.11c0-0.79,0.18-1.52,0.53-2.19c0.35-0.67,0.84-1.24,1.47-1.71c0.63-0.47,1.38-0.84,2.25-1.1
					c0.87-0.27,1.83-0.4,2.88-0.4c0.75,0,1.48,0.06,2.19,0.19c0.71,0.13,1.35,0.31,1.9,0.54v-0.96c0-1.11-0.31-1.96-0.94-2.56
					c-0.63-0.6-1.56-0.9-2.8-0.9c-0.9,0-1.77,0.16-2.62,0.48c-0.85,0.32-1.73,0.79-2.62,1.41l-1.31-2.72
					c2.15-1.43,4.48-2.14,6.97-2.14c2.41,0,4.28,0.59,5.61,1.78c1.33,1.18,2,2.89,2,5.13v5.21c0,0.45,0.08,0.77,0.24,0.96
					c0.16,0.19,0.42,0.3,0.78,0.32v3.65c-0.73,0.15-1.35,0.22-1.89,0.22c-0.81,0-1.43-0.18-1.87-0.54
					c-0.44-0.36-0.71-0.84-0.82-1.44l-0.1-0.93c-0.75,0.98-1.65,1.73-2.72,2.24C167.71,72.13,166.57,72.39,165.36,72.39z
					 M166.57,69.25c0.72,0,1.41-0.13,2.06-0.38c0.65-0.26,1.16-0.6,1.52-1.02c0.47-0.36,0.7-0.77,0.7-1.22v-1.92
					c-0.51-0.19-1.07-0.35-1.66-0.46c-0.6-0.12-1.17-0.18-1.73-0.18c-1.11,0-2.01,0.25-2.72,0.75c-0.7,0.5-1.06,1.14-1.06,1.9
					c0,0.72,0.28,1.33,0.83,1.81C165.08,69.01,165.76,69.25,166.57,69.25z"/>
				<path class="st0" d="M184.26,72.39c-1.73,0-3.04-0.55-3.93-1.66c-0.9-1.11-1.34-2.75-1.34-4.92V55.31h4.29v9.56
					c0,2.58,0.93,3.87,2.78,3.87c0.83,0,1.64-0.25,2.41-0.75c0.78-0.5,1.41-1.26,1.9-2.29V55.31h4.29v11.83
					c0,0.45,0.08,0.77,0.24,0.96c0.16,0.19,0.42,0.3,0.78,0.32v3.65c-0.43,0.09-0.78,0.14-1.07,0.16c-0.29,0.02-0.55,0.03-0.78,0.03
					c-0.77,0-1.39-0.18-1.87-0.53c-0.48-0.35-0.76-0.84-0.85-1.45l-0.1-1.34c-0.75,1.15-1.71,2.01-2.88,2.59
					C186.95,72.1,185.66,72.39,184.26,72.39z M187.9,53.36l-2.75-0.83l1.73-3.81h4L187.9,53.36z"/>
				<path class="st0" d="M197.85,63.69c0-1.17,0.2-2.28,0.61-3.33c0.4-1.04,0.99-1.96,1.76-2.75c0.77-0.79,1.69-1.42,2.78-1.89
					c1.09-0.47,2.31-0.7,3.68-0.7c1.83,0,3.39,0.39,4.68,1.18c1.29,0.79,2.25,1.82,2.89,3.1l-4.19,1.28
					c-0.36-0.62-0.84-1.09-1.44-1.42c-0.6-0.33-1.26-0.5-1.98-0.5c-0.62,0-1.19,0.12-1.73,0.37c-0.53,0.25-1,0.59-1.39,1.02
					c-0.39,0.44-0.7,0.96-0.93,1.58c-0.22,0.62-0.34,1.3-0.34,2.05c0,0.75,0.12,1.43,0.35,2.05c0.23,0.62,0.55,1.15,0.94,1.6
					c0.39,0.45,0.86,0.79,1.39,1.04c0.53,0.25,1.1,0.37,1.69,0.37c0.77,0,1.48-0.19,2.13-0.58c0.65-0.38,1.1-0.85,1.36-1.41
					l4.19,1.28c-0.58,1.28-1.52,2.32-2.85,3.13c-1.32,0.81-2.91,1.22-4.76,1.22c-1.36,0-2.59-0.23-3.68-0.7
					c-1.09-0.47-2.01-1.1-2.78-1.9c-0.77-0.8-1.36-1.73-1.77-2.78C198.05,65.94,197.85,64.84,197.85,63.69z"/>
				<path class="st0" d="M232.51,72.07h-4.29v-9.4c0-1.32-0.25-2.3-0.74-2.93c-0.49-0.63-1.18-0.94-2.08-0.94
					c-0.38,0-0.79,0.09-1.22,0.26c-0.43,0.17-0.83,0.41-1.22,0.72c-0.38,0.31-0.74,0.68-1.06,1.1c-0.32,0.43-0.55,0.9-0.7,1.41v9.79
					h-4.29V48.72h4.29v9.69c0.62-1.09,1.46-1.92,2.51-2.51c1.06-0.59,2.22-0.88,3.5-0.88c1.09,0,1.97,0.19,2.65,0.56
					c0.68,0.37,1.22,0.87,1.6,1.49c0.38,0.62,0.65,1.32,0.8,2.11c0.15,0.79,0.22,1.6,0.22,2.43V72.07z"/>
				<path class="st0" d="M243.99,72.39c-1.36,0-2.59-0.23-3.68-0.7c-1.09-0.47-2.01-1.1-2.77-1.9c-0.76-0.8-1.34-1.72-1.74-2.77
					c-0.41-1.04-0.61-2.14-0.61-3.29c0-1.17,0.2-2.28,0.61-3.33c0.4-1.04,0.99-1.97,1.74-2.77c0.76-0.8,1.68-1.43,2.77-1.9
					c1.09-0.47,2.31-0.7,3.68-0.7c1.36,0,2.58,0.23,3.66,0.7c1.08,0.47,1.99,1.1,2.75,1.9c0.76,0.8,1.34,1.72,1.74,2.77
					c0.4,1.04,0.61,2.15,0.61,3.33c0,1.15-0.2,2.25-0.61,3.29c-0.41,1.04-0.98,1.97-1.73,2.77c-0.75,0.8-1.66,1.43-2.75,1.9
					C246.58,72.15,245.36,72.39,243.99,72.39z M239.61,63.72c0,0.75,0.11,1.42,0.34,2.03s0.53,1.14,0.93,1.58
					c0.39,0.45,0.86,0.79,1.39,1.04c0.53,0.25,1.11,0.37,1.73,0.37c0.62,0,1.19-0.12,1.73-0.37c0.53-0.24,1-0.59,1.39-1.04
					c0.39-0.45,0.7-0.98,0.93-1.6c0.22-0.62,0.34-1.3,0.34-2.05c0-0.72-0.11-1.4-0.34-2.01c-0.22-0.62-0.53-1.15-0.93-1.6
					c-0.39-0.45-0.86-0.79-1.39-1.04c-0.53-0.24-1.11-0.37-1.73-0.37c-0.62,0-1.19,0.13-1.73,0.38c-0.53,0.26-1,0.61-1.39,1.06
					c-0.39,0.45-0.7,0.98-0.93,1.6C239.72,62.32,239.61,63,239.61,63.72z"/>
				<path class="st0" d="M261.97,72.39c-1.41,0-2.78-0.22-4.13-0.67c-1.34-0.45-2.49-1.09-3.45-1.92l1.6-2.69
					c1.02,0.72,2.02,1.27,2.99,1.65c0.97,0.37,1.93,0.56,2.89,0.56c0.85,0,1.52-0.16,2.01-0.48c0.49-0.32,0.74-0.78,0.74-1.38
					c0-0.6-0.29-1.03-0.86-1.31c-0.58-0.28-1.51-0.6-2.81-0.96c-1.09-0.3-2.01-0.59-2.78-0.86c-0.77-0.28-1.39-0.59-1.85-0.94
					c-0.47-0.35-0.81-0.76-1.02-1.22c-0.21-0.46-0.32-1.01-0.32-1.65c0-0.85,0.16-1.62,0.5-2.3c0.33-0.68,0.79-1.26,1.39-1.74
					c0.6-0.48,1.3-0.85,2.09-1.1c0.8-0.26,1.67-0.38,2.61-0.38c1.26,0,2.44,0.18,3.53,0.54c1.1,0.36,2.11,0.95,3.02,1.76l-1.73,2.59
					c-0.85-0.64-1.68-1.11-2.48-1.41c-0.8-0.3-1.59-0.45-2.38-0.45c-0.73,0-1.33,0.15-1.82,0.45c-0.49,0.3-0.74,0.78-0.74,1.44
					c0,0.3,0.06,0.54,0.18,0.74c0.12,0.19,0.3,0.36,0.56,0.51c0.26,0.15,0.59,0.29,1.01,0.43c0.42,0.14,0.93,0.28,1.55,0.43
					c1.15,0.3,2.14,0.6,2.96,0.9c0.82,0.3,1.49,0.64,2.01,1.02c0.52,0.38,0.91,0.83,1.15,1.33c0.24,0.5,0.37,1.1,0.37,1.81
					c0,1.64-0.61,2.94-1.82,3.89C265.71,71.91,264.05,72.39,261.97,72.39z"/>
			</g>
			<g>
				<path class="st0" d="M233.82,82.49v-3.43h34v3.43H233.82z"/>
			</g>
		</g>
	</g>
	<g>
		<g>
			<path class="st0" d="M169.6,82.7v-4.5h1.89c0.2,0,0.39,0.04,0.56,0.13c0.17,0.08,0.32,0.2,0.44,0.33
				c0.12,0.14,0.22,0.29,0.29,0.47c0.07,0.18,0.1,0.35,0.1,0.54c0,0.19-0.03,0.37-0.1,0.55c-0.07,0.18-0.16,0.33-0.28,0.47
				c-0.12,0.14-0.26,0.25-0.43,0.33c-0.17,0.08-0.35,0.12-0.56,0.12h-1.22v1.57H169.6z M170.31,80.5h1.17c0.1,0,0.19-0.02,0.28-0.06
				c0.08-0.04,0.15-0.1,0.21-0.18c0.06-0.08,0.11-0.16,0.14-0.27c0.03-0.1,0.05-0.21,0.05-0.34c0-0.13-0.02-0.24-0.06-0.34
				c-0.04-0.1-0.09-0.19-0.16-0.26c-0.07-0.07-0.14-0.13-0.23-0.17c-0.09-0.04-0.18-0.06-0.27-0.06h-1.14V80.5z"/>
			<path class="st0" d="M179.43,82.07v0.63h-3.09v-4.5h3.03v0.63h-2.32v1.28h2.01v0.59h-2.01v1.38H179.43z"/>
			<path class="st0" d="M186.27,78.82h-1.5v3.88h-0.72v-3.88h-1.5v-0.63h3.72V78.82z"/>
			<path class="st0" d="M196.51,79.25c-0.04-0.05-0.1-0.1-0.18-0.15c-0.08-0.05-0.17-0.1-0.28-0.15c-0.11-0.05-0.23-0.08-0.36-0.11
				c-0.13-0.03-0.26-0.04-0.4-0.04c-0.3,0-0.52,0.05-0.66,0.16c-0.14,0.11-0.21,0.26-0.21,0.46c0,0.11,0.02,0.2,0.07,0.27
				c0.04,0.07,0.11,0.13,0.21,0.18c0.09,0.05,0.21,0.1,0.35,0.14c0.14,0.04,0.3,0.08,0.49,0.13c0.23,0.05,0.43,0.12,0.62,0.18
				s0.34,0.15,0.47,0.25c0.13,0.1,0.23,0.22,0.3,0.36c0.07,0.14,0.1,0.31,0.1,0.52c0,0.23-0.04,0.43-0.13,0.59
				c-0.09,0.17-0.21,0.3-0.36,0.4c-0.15,0.1-0.32,0.18-0.52,0.23c-0.2,0.05-0.41,0.07-0.64,0.07c-0.34,0-0.67-0.05-0.99-0.16
				c-0.32-0.1-0.61-0.25-0.87-0.45l0.32-0.61c0.05,0.05,0.13,0.12,0.24,0.18c0.1,0.07,0.22,0.13,0.36,0.19
				c0.14,0.06,0.29,0.11,0.45,0.15c0.16,0.04,0.33,0.06,0.5,0.06c0.28,0,0.49-0.05,0.65-0.15c0.15-0.1,0.23-0.24,0.23-0.43
				c0-0.11-0.03-0.21-0.09-0.29c-0.06-0.08-0.14-0.14-0.24-0.2c-0.11-0.06-0.23-0.11-0.39-0.16s-0.33-0.1-0.52-0.15
				c-0.22-0.06-0.42-0.12-0.59-0.19c-0.17-0.07-0.31-0.15-0.42-0.24c-0.11-0.09-0.19-0.2-0.25-0.33c-0.06-0.12-0.09-0.28-0.09-0.45
				c0-0.22,0.04-0.42,0.13-0.59c0.08-0.17,0.2-0.32,0.35-0.43c0.15-0.12,0.32-0.2,0.52-0.26c0.2-0.06,0.41-0.09,0.65-0.09
				c0.3,0,0.59,0.05,0.84,0.15c0.26,0.1,0.48,0.22,0.68,0.36L196.51,79.25z"/>
			<path class="st0" d="M204.21,78.19v4.5h-0.72v-1.99h-2.27v1.99h-0.71v-4.5h0.71v1.88h2.27v-1.88H204.21z"/>
			<path class="st0" d="M209.89,82.73c-0.32,0-0.61-0.06-0.88-0.19s-0.49-0.3-0.68-0.51c-0.19-0.21-0.34-0.46-0.44-0.73
				c-0.1-0.27-0.16-0.56-0.16-0.84c0-0.3,0.05-0.59,0.16-0.86c0.11-0.28,0.26-0.52,0.45-0.73c0.19-0.21,0.42-0.38,0.69-0.5
				c0.26-0.12,0.55-0.19,0.87-0.19c0.32,0,0.61,0.07,0.88,0.2c0.26,0.13,0.49,0.31,0.68,0.52c0.19,0.22,0.33,0.46,0.44,0.73
				c0.1,0.27,0.16,0.55,0.16,0.83c0,0.3-0.05,0.59-0.16,0.86c-0.11,0.28-0.26,0.52-0.45,0.73c-0.19,0.21-0.42,0.38-0.69,0.5
				C210.48,82.67,210.2,82.73,209.89,82.73z M208.45,80.45c0,0.21,0.03,0.42,0.1,0.62c0.07,0.2,0.16,0.37,0.29,0.53
				c0.12,0.15,0.28,0.27,0.45,0.36c0.18,0.09,0.38,0.14,0.6,0.14c0.23,0,0.43-0.05,0.61-0.14c0.18-0.1,0.32-0.22,0.45-0.38
				c0.12-0.16,0.22-0.33,0.28-0.53c0.06-0.19,0.1-0.39,0.1-0.6c0-0.22-0.03-0.42-0.1-0.62c-0.07-0.2-0.16-0.37-0.29-0.52
				c-0.12-0.15-0.27-0.27-0.45-0.36c-0.18-0.09-0.37-0.14-0.59-0.14c-0.23,0-0.43,0.05-0.61,0.14c-0.18,0.1-0.33,0.22-0.45,0.37
				s-0.22,0.33-0.28,0.52C208.49,80.04,208.45,80.24,208.45,80.45z"/>
			<path class="st0" d="M215.58,82.7v-4.5h1.89c0.2,0,0.39,0.04,0.56,0.13c0.17,0.08,0.32,0.2,0.44,0.33
				c0.12,0.14,0.22,0.29,0.29,0.47c0.07,0.18,0.1,0.35,0.1,0.54c0,0.19-0.03,0.37-0.1,0.55c-0.07,0.18-0.16,0.33-0.28,0.47
				c-0.12,0.14-0.26,0.25-0.43,0.33c-0.17,0.08-0.35,0.12-0.56,0.12h-1.22v1.57H215.58z M216.29,80.5h1.17
				c0.1,0,0.19-0.02,0.28-0.06c0.08-0.04,0.15-0.1,0.21-0.18c0.06-0.08,0.11-0.16,0.14-0.27c0.03-0.1,0.05-0.21,0.05-0.34
				c0-0.13-0.02-0.24-0.06-0.34c-0.04-0.1-0.09-0.19-0.16-0.26c-0.07-0.07-0.14-0.13-0.23-0.17s-0.18-0.06-0.27-0.06h-1.14V80.5z"/>
		</g>
	</g>
</g>
</svg>
